# xmcd CD database file
#
# Track frame offsets:
#	180
#	11950
#	24632
#	38050
#	50212
#	61385
#	73305
#	84410
#	103787
#	116767
#	128830
#	142035
#	155847
#	171000
#	185165
#	198520
#	212552
#	221951
#	240780
#	253744
#	267069
#	279420
#	291128
#
# Disc length: 4025 seconds
#
# Revision: 0
# Processed by: cddbd v1.5.1PL0 Copyright (c) Steve Scherf et al.
# Submitted via: Feurio! 1.67 - http://www.feurio.com
#
DISCID=6c0fb717
DTITLE=Tammy Wynette - Biggest Hits and Country Classics
DYEAR=2003
DGENRE=Country
TTITLE0=I Don't Wanna Play House
TTITLE1=Take Me To Your World
TTITLE2=D.I.V.O.R.C.E.
TTITLE3=Stand By You Man
TTITLE4=The Ways To Love A Man
TTITLE5=When He Loves Me (He Loves Me All The Way)
TTITLE6=Run Woman Run
TTITLE7=Bedtime Story
TTITLE8=My Man
TTITLE9=Till I Get It Right
TTITLE10=Kids (Say The Darndest Things)
TTITLE11='Til I Can Make It On My Own
TTITLE12=You And Me
TTITLE13=Starting Over
TTITLE14=Cowboys Don't Shoot Straight (Like They Used To)
TTITLE15=Crying In The Rain
TTITLE16=Don't Come Home A Drinkin' (With Lovin' On Your Mind)
TTITLE17=Little Things
TTITLE18=Womanhood
TTITLE19=Apartment #9
TTITLE20=Cry, Cry Again
TTITLE21=I Don't Wanna Play House
TTITLE22=I Still Believe In Fairytales
EXTD=(c)1983 CBS Inc., EPIC, Katalog EPC 32302\r\n(c)1982 CBS Inc., Katalog 
EXTD=P16912
EXTT0=
EXTT1=
EXTT2=
EXTT3=
EXTT4=
EXTT5=
EXTT6=
EXTT7=
EXTT8=
EXTT9=
EXTT10=
EXTT11=
EXTT12=
EXTT13=
EXTT14=
EXTT15=
EXTT16=
EXTT17=
EXTT18=
EXTT19=
EXTT20=
EXTT21=
EXTT22=
PLAYORDER=
